<svg width="360" height="100" viewBox="0 0 360 100" fill="none" xmlns="http://www.w3.org/2000/svg">
<g style="mix-blend-mode:difference">
<path d="M21.2037 64.6364C20.636 64.2953 19.8521 64.001 18.8494 63.7509C17.8597 63.5113 17.193 63.2327 16.8544 62.9097C16.5132 62.5868 16.3439 62.2066 16.3439 61.7638C16.3439 61.2508 16.5263 60.8575 16.8909 60.5814C17.2555 60.308 17.7816 60.1699 18.4743 60.1699C18.9275 60.1699 19.3546 60.2689 19.7531 60.4642C20.1516 60.6622 20.537 60.9851 20.9068 61.4409L22.4096 60.4747C21.9798 59.8418 21.4537 59.3444 20.8339 58.9798C20.2141 58.6151 19.4249 58.4328 18.4717 58.4328C17.6722 58.4328 16.9794 58.5735 16.396 58.8547C15.81 59.136 15.3647 59.5241 15.0548 60.0189C14.7449 60.5137 14.5886 61.0971 14.5886 61.7638C14.5886 62.3003 14.6902 62.8004 14.8933 63.2587C15.0964 63.7171 15.4559 64.1234 15.9767 64.475C16.495 64.8266 17.2216 65.1235 18.1514 65.3605C18.891 65.5402 19.464 65.7355 19.8703 65.9516C20.2766 66.1652 20.5604 66.3996 20.7193 66.6496C20.8808 66.8996 20.9615 67.1939 20.9615 67.5273C20.9615 68.0872 20.774 68.53 20.399 68.8529C20.0239 69.1758 19.4718 69.3373 18.7426 69.3373C18.0134 69.3373 17.3649 69.1706 16.8622 68.8373C16.3622 68.5039 15.9012 67.9596 15.4845 67.2095L14 68.0508C14.3334 68.8034 14.7449 69.3972 15.2345 69.8321C15.7241 70.2671 16.2632 70.5822 16.8544 70.7723C17.4456 70.9624 18.0576 71.0588 18.6879 71.0588C19.5109 71.0588 20.2271 70.8999 20.8365 70.5848C21.4459 70.2697 21.9173 69.8478 22.2507 69.3217C22.5841 68.7956 22.7507 68.207 22.7507 67.5507C22.7507 66.8944 22.6335 66.3319 22.4017 65.8605C22.17 65.3891 21.7689 64.9828 21.2037 64.6443V64.6364Z" fill="#FEF9F3"/>
<path d="M25.2822 70.7855H32.6917V69.0848H27.0714V65.5038H31.6369V63.8214H27.0714V60.2795H32.6917V58.597H25.2822V70.7855Z" fill="#FEF9F3"/>
<path d="M45.0342 60.2064C44.4664 59.6465 43.8023 59.2115 43.0392 58.899C42.2761 58.5891 41.4453 58.4328 40.552 58.4328C39.6587 58.4328 38.8071 58.5891 38.0362 58.899C37.2679 59.2089 36.596 59.6439 36.023 60.2064C35.4501 60.7663 35.0047 61.4305 34.6896 62.1935C34.3744 62.9566 34.2156 63.7926 34.2156 64.6989C34.2156 65.6053 34.3744 66.423 34.6896 67.1861C35.0047 67.9492 35.4501 68.6159 36.023 69.181C36.596 69.7488 37.2679 70.1863 38.0362 70.4963C38.8071 70.8062 39.6431 70.9624 40.552 70.9624C41.461 70.9624 42.2761 70.8062 43.0392 70.4963C43.8023 70.1863 44.469 69.7488 45.0342 69.181C45.6019 68.6133 46.0421 67.9492 46.3598 67.1861C46.675 66.423 46.8338 65.5922 46.8338 64.6989C46.8338 63.8056 46.675 62.9566 46.3598 62.1935C46.0447 61.4305 45.6019 60.769 45.0342 60.2064ZM44.4248 67.0351C44.0367 67.72 43.508 68.2617 42.8413 68.655C42.172 69.0482 41.4089 69.2462 40.5494 69.2462C39.69 69.2462 38.9217 69.0482 38.2394 68.655C37.5596 68.2617 37.0231 67.7226 36.6272 67.0351C36.234 66.3501 36.036 65.5714 36.036 64.6989C36.036 63.8265 36.234 63.0348 36.6272 62.355C37.0205 61.6753 37.557 61.1388 38.2394 60.7429C38.9191 60.3496 39.69 60.1517 40.5494 60.1517C41.4089 60.1517 42.172 60.3496 42.8413 60.7429C43.5106 61.1362 44.0367 61.6727 44.4248 62.355C44.8128 63.0348 45.0055 63.8161 45.0055 64.6989C45.0055 65.5818 44.8102 66.3475 44.4248 67.0351Z" fill="#FEF9F3"/>
<path d="M53.0475 69.0796L49.3076 58.597H47.4819L51.8313 70.7855H54.2664L58.6157 58.597H56.79L53.0475 69.0796Z" fill="#FEF9F3"/>
<path d="M62.3712 58.597H60.582V70.7855H62.3712V58.597Z" fill="#FEF9F3"/>
<path d="M67.4997 58.597H65.7104V70.7855H72.7605V69.103H67.4997V58.597Z" fill="#FEF9F3"/>
<path d="M76.6513 58.597H74.8621V70.7855H81.9121V69.103H76.6513V58.597Z" fill="#FEF9F3"/>
<path d="M87.8371 58.597L83.4878 70.7855H85.3135L86.3292 67.9389H91.7802L92.7959 70.7855H94.6215L90.2722 58.597H87.8371ZM86.9282 66.2565L89.0534 60.3003L91.1785 66.2565H86.9282Z" fill="#FEF9F3"/>
<path d="M107.451 64.5555H101.474V66.238H105.729C105.633 66.6078 105.487 66.9541 105.284 67.2771C104.901 67.8865 104.385 68.3657 103.737 68.7173C103.086 69.0689 102.367 69.246 101.581 69.246C100.794 69.246 100.02 69.0481 99.3694 68.6548C98.7183 68.2615 98.2026 67.7224 97.8224 67.0349C97.4395 66.3499 97.2494 65.5712 97.2494 64.6988C97.2494 63.8263 97.4395 63.0346 97.8224 62.3548C98.2052 61.6751 98.7209 61.1386 99.3694 60.7427C100.02 60.3495 100.758 60.1516 101.581 60.1516C102.32 60.1516 103.003 60.287 103.63 60.5552C104.258 60.8235 104.844 61.3339 105.393 62.0866L107.146 61.5683C106.586 60.6151 105.862 59.852 104.979 59.2869C104.096 58.7191 102.963 58.4379 101.578 58.4379C100.695 58.4379 99.8798 58.5941 99.135 58.9041C98.3901 59.214 97.739 59.6489 97.1843 60.2114C96.6296 60.7714 96.1972 61.4355 95.8873 62.1986C95.5774 62.9617 95.4211 63.7977 95.4211 64.704C95.4211 65.8968 95.6764 66.9672 96.192 67.9178C96.7051 68.8658 97.4239 69.6132 98.3485 70.1549C99.273 70.6992 100.351 70.9701 101.578 70.9701C102.437 70.9701 103.226 70.8268 103.951 70.5404C104.672 70.2539 105.305 69.8554 105.846 69.3423C106.388 68.8293 106.81 68.2381 107.11 67.5714C107.407 66.9021 107.558 66.1885 107.558 65.4228C107.558 65.2795 107.55 65.1311 107.532 64.9748C107.513 64.8212 107.487 64.6831 107.451 64.5633V64.5555Z" fill="#FEF9F3"/>
<path d="M117.355 60.2795V58.597H109.946V70.7855H117.355V69.0848H111.735V65.5038H116.3V63.8214H111.735V60.2795H117.355Z" fill="#FEF9F3"/>
<path d="M40.8436 78.7732C41.005 78.6873 41.13 78.5701 41.2212 78.4164C41.3124 78.2653 41.3566 78.0909 41.3566 77.8929C41.3566 77.695 41.3124 77.5205 41.2212 77.3694C41.13 77.2184 41.005 77.096 40.8436 77.01C40.6821 76.9215 40.4972 76.8772 40.2836 76.8772H39.1611V79.9243H39.6794V78.9008H40.2602L40.8227 79.9243H41.3905L40.7759 78.8018C40.7993 78.7914 40.8227 78.7836 40.8436 78.7706V78.7732ZM39.6794 77.3721H40.2159C40.4008 77.3721 40.5467 77.4163 40.6561 77.5049C40.7654 77.5934 40.8201 77.7236 40.8201 77.8955C40.8201 78.057 40.7654 78.182 40.6561 78.2732C40.5467 78.3643 40.4008 78.4086 40.2159 78.4086H39.6794V77.3694V77.3721Z" fill="#FEF9F3"/>
<path d="M44.0522 79.927H45.9378V79.4348H44.5731V78.6404H45.6774V78.1508H44.5731V77.3721H45.9378V76.8799H44.0522V79.927Z" fill="#FEF9F3"/>
<path d="M50.2484 78.3567C50.1025 78.2707 49.9046 78.1978 49.652 78.1353C49.4202 78.078 49.2639 78.0155 49.1832 77.9426C49.1024 77.8722 49.0634 77.7863 49.0634 77.6873C49.0634 77.5701 49.105 77.4816 49.1884 77.4217C49.2717 77.3618 49.3915 77.3305 49.5504 77.3305C49.6598 77.3305 49.7666 77.354 49.8707 77.4008C49.9749 77.4477 50.0687 77.5259 50.1546 77.6352L50.5791 77.354C50.4723 77.1951 50.3369 77.0701 50.1728 76.9737C50.0114 76.8774 49.8056 76.8305 49.5582 76.8305C49.3499 76.8305 49.1701 76.867 49.0165 76.9425C48.8654 77.018 48.7482 77.1196 48.6675 77.2472C48.5868 77.3748 48.5477 77.5259 48.5477 77.7003C48.5477 77.841 48.5737 77.9686 48.6284 78.0884C48.6831 78.2056 48.7769 78.3098 48.9097 78.3983C49.0451 78.4869 49.23 78.5598 49.4697 78.6197C49.6415 78.6614 49.777 78.7056 49.8707 78.7551C49.9645 78.8046 50.0296 78.8567 50.0687 78.9114C50.1077 78.9661 50.1234 79.0312 50.1234 79.1067C50.1234 79.2317 50.0817 79.3307 49.9957 79.401C49.9098 79.4739 49.7848 79.5078 49.6233 79.5078C49.4462 79.5078 49.2978 79.4687 49.1728 79.388C49.0477 79.3072 48.9358 79.1796 48.8368 79.0077L48.4175 79.2578C48.5008 79.4375 48.605 79.5807 48.7274 79.6901C48.8498 79.7995 48.9852 79.8776 49.1337 79.9271C49.2821 79.9766 49.4384 80 49.6025 80C49.816 80 50.0036 79.9609 50.1598 79.8802C50.3161 79.7995 50.4385 79.6927 50.5244 79.5573C50.6104 79.4218 50.6546 79.2708 50.6546 79.1015C50.6546 78.9322 50.6234 78.7916 50.5635 78.6692C50.5036 78.5468 50.3994 78.4452 50.2536 78.3593L50.2484 78.3567Z" fill="#FEF9F3"/>
<path d="M55.772 77.2782C55.6314 77.1376 55.4647 77.0282 55.272 76.9527C55.0819 76.8745 54.8735 76.8355 54.6495 76.8355C54.4256 76.8355 54.2094 76.8745 54.0167 76.9527C53.824 77.0308 53.6573 77.1402 53.5166 77.2782C53.376 77.4189 53.264 77.5855 53.1885 77.7783C53.1104 77.971 53.0713 78.1793 53.0713 78.4059C53.0713 78.6325 53.1104 78.8408 53.1885 79.0336C53.2666 79.2237 53.376 79.3904 53.5166 79.5336C53.6573 79.6742 53.8266 79.7836 54.0167 79.8618C54.2094 79.9399 54.4204 79.9789 54.6495 79.9789C54.8787 79.9789 55.0819 79.9399 55.272 79.8618C55.4621 79.7836 55.6288 79.6742 55.772 79.5336C55.9127 79.393 56.0221 79.2263 56.1002 79.0336C56.1783 78.8434 56.2174 78.6351 56.2174 78.4059C56.2174 78.1767 56.1783 77.971 56.1002 77.7783C56.0221 77.5855 55.9127 77.4189 55.772 77.2782ZM55.5559 78.9554C55.4673 79.1169 55.3423 79.2419 55.186 79.3331C55.0298 79.4242 54.8501 79.4685 54.6522 79.4685C54.4542 79.4685 54.2693 79.4242 54.1104 79.3331C53.9516 79.2419 53.8266 79.1169 53.738 78.958C53.6469 78.7992 53.6026 78.6143 53.6026 78.4059C53.6026 78.1976 53.6469 78.0127 53.738 77.8538C53.8292 77.6949 53.9542 77.5699 54.1104 77.4788C54.2667 77.3876 54.449 77.3433 54.6522 77.3433C54.8553 77.3433 55.0298 77.3876 55.186 77.4788C55.3423 77.5699 55.4647 77.6923 55.5559 77.8512C55.647 78.01 55.6913 78.1976 55.6913 78.4085C55.6913 78.6195 55.647 78.7966 55.5559 78.958V78.9554Z" fill="#FEF9F3"/>
<path d="M60.5486 78.7732C60.7101 78.6873 60.8351 78.5701 60.9263 78.4164C61.0174 78.2653 61.0617 78.0909 61.0617 77.8929C61.0617 77.695 61.0174 77.5205 60.9263 77.3694C60.8351 77.2184 60.7101 77.096 60.5486 77.01C60.3872 76.9215 60.2023 76.8772 59.9887 76.8772H58.8662V79.9243H59.3845V78.9008H59.9653L60.5278 79.9243H61.0956L60.4809 78.8018C60.5044 78.7914 60.5278 78.7836 60.5486 78.7706V78.7732ZM59.3845 77.3721H59.921C60.1059 77.3721 60.2517 77.4163 60.3611 77.5049C60.4705 77.5934 60.5252 77.7236 60.5252 77.8955C60.5252 78.057 60.4705 78.182 60.3611 78.2732C60.2517 78.3643 60.1059 78.4086 59.921 78.4086H59.3845V77.3694V77.3721Z" fill="#FEF9F3"/>
<path d="M63.4548 77.3721H64.3898V79.927H64.9081V77.3721H65.8795V76.8799H63.4548V77.3721Z" fill="#FEF9F3"/>
<path d="M72.6307 77.9218C72.5421 77.8411 72.4953 77.7421 72.4953 77.6275C72.4953 77.5286 72.5291 77.4426 72.5994 77.3671C72.6697 77.2916 72.7713 77.2551 72.9015 77.2551C72.9797 77.2551 73.0552 77.2681 73.1281 77.2942C73.201 77.3202 73.274 77.3697 73.3443 77.4374L73.6985 77.1145C73.6073 77.0103 73.511 76.9296 73.412 76.8749C73.313 76.8202 73.2193 76.7837 73.1255 76.7681C73.0318 76.7525 72.9458 76.7447 72.8625 76.7447C72.6697 76.7447 72.5057 76.7863 72.3729 76.8723C72.24 76.9582 72.1411 77.065 72.0733 77.1952C72.0056 77.3254 71.9718 77.4583 71.9718 77.5963C71.9718 77.8333 72.0525 78.0234 72.214 78.1719C72.2478 78.2031 72.2843 78.2291 72.3234 78.2552C72.1671 78.3359 72.0447 78.4375 71.9535 78.5625C71.8572 78.6979 71.8103 78.8438 71.8103 79.0052C71.8103 79.1823 71.852 79.3438 71.9353 79.4897C72.0186 79.6381 72.1411 79.7553 72.3025 79.8439C72.464 79.9324 72.6593 79.9767 72.8885 79.9767C72.9901 79.9767 73.1021 79.9611 73.2219 79.9272C73.3417 79.8933 73.4563 79.836 73.563 79.7527C73.6698 79.6694 73.7584 79.5522 73.8261 79.4037C73.8938 79.2553 73.9277 79.0599 73.9277 78.8229V78.5182H74.3522V78.0442H73.0318C72.8495 78.0442 72.714 78.0052 72.6255 77.9244L72.6307 77.9218ZM73.4146 78.7761C73.4146 79.0026 73.3729 79.1745 73.287 79.2891C73.201 79.4037 73.063 79.461 72.8729 79.461C72.7088 79.461 72.5786 79.4193 72.4848 79.336C72.3885 79.2527 72.3416 79.1381 72.3416 78.9922C72.3416 78.8464 72.3885 78.7292 72.4848 78.6458C72.5812 78.5599 72.7114 78.5182 72.8781 78.5182H73.4146V78.7787V78.7761Z" fill="#FEF9F3"/>
<path d="M82.0531 78.3567C81.9072 78.2707 81.7093 78.1978 81.4566 78.1353C81.2249 78.078 81.0686 78.0155 80.9879 77.9426C80.9071 77.8722 80.8681 77.7863 80.8681 77.6873C80.8681 77.5701 80.9097 77.4816 80.9931 77.4217C81.0764 77.3618 81.1962 77.3305 81.3551 77.3305C81.4645 77.3305 81.5712 77.354 81.6754 77.4008C81.7796 77.4477 81.8734 77.5259 81.9593 77.6352L82.3838 77.354C82.277 77.1951 82.1416 77.0701 81.9775 76.9737C81.816 76.8774 81.6103 76.8305 81.3629 76.8305C81.1545 76.8305 80.9748 76.867 80.8212 76.9425C80.6701 77.018 80.5529 77.1196 80.4722 77.2472C80.3915 77.3748 80.3524 77.5259 80.3524 77.7003C80.3524 77.841 80.3784 77.9686 80.4331 78.0884C80.4878 78.2056 80.5816 78.3098 80.7144 78.3983C80.8498 78.4869 81.0347 78.5598 81.2743 78.6197C81.4462 78.6614 81.5817 78.7056 81.6754 78.7551C81.7692 78.8046 81.8343 78.8567 81.8733 78.9114C81.9124 78.9661 81.928 79.0312 81.928 79.1067C81.928 79.2317 81.8864 79.3307 81.8004 79.401C81.7145 79.4739 81.5895 79.5078 81.428 79.5078C81.2509 79.5078 81.1024 79.4687 80.9774 79.388C80.8524 79.3072 80.7404 79.1796 80.6415 79.0077L80.2222 79.2578C80.3055 79.4375 80.4097 79.5807 80.5321 79.6901C80.6545 79.7995 80.7899 79.8776 80.9384 79.9271C81.0868 79.9766 81.2431 80 81.4072 80C81.6207 80 81.8082 79.9609 81.9645 79.8802C82.1208 79.7995 82.2432 79.6927 82.3291 79.5573C82.4151 79.4218 82.4593 79.2708 82.4593 79.1015C82.4593 78.9322 82.4281 78.7916 82.3682 78.6692C82.3083 78.5468 82.2041 78.4452 82.0583 78.3593L82.0531 78.3567Z" fill="#FEF9F3"/>
<path d="M86.7564 77.0153C86.5975 76.9242 86.4074 76.8799 86.1913 76.8799H85.1052V79.927H85.6235V78.992H86.1913C86.4048 78.992 86.5949 78.9477 86.7538 78.8566C86.9127 78.7654 87.0403 78.643 87.1288 78.4842C87.2174 78.3253 87.2643 78.143 87.2643 77.9399C87.2643 77.7367 87.22 77.5518 87.1288 77.3929C87.0403 77.2341 86.9153 77.1091 86.7564 77.0179V77.0153ZM86.5637 78.3513C86.4543 78.4503 86.3085 78.4998 86.1235 78.4998H85.6235V77.3721H86.1287C86.3137 77.3721 86.4595 77.419 86.5663 77.5153C86.6731 77.6117 86.7278 77.7523 86.7278 77.9399C86.7278 78.117 86.6731 78.2524 86.5637 78.3513Z" fill="#FEF9F3"/>
<path d="M91.6657 79.927H92.1944L91.124 76.8799H90.4755L89.3921 79.927H89.9156L90.15 79.2655H91.4365L91.6657 79.927ZM90.3219 78.7811L90.8037 77.4164L91.2725 78.7811H90.3219Z" fill="#FEF9F3"/>
<path d="M80.9195 20H50.4482V50.4711H60.6053L65.6839 43.158L70.7624 50.4711H80.9195V20ZM67.1189 20.9818C66.598 21.8804 65.9469 22.9455 65.2385 23.9847C64.4702 25.1098 61.8815 28.722 60.4569 28.3704C60.3892 28.2194 60.1444 27.3079 61.5039 23.3909C61.8008 22.5314 62.1185 21.6928 62.3998 20.9818H67.1189ZM54.2689 20.9818C54.5085 21.6902 54.6882 22.3934 54.7246 22.9924C54.9122 25.9536 53.8027 28.2741 51.4327 29.8966V20.9818H54.2689ZM51.4327 31.3134C51.615 31.2066 51.7973 31.0972 51.9796 30.9748C53.9277 29.683 56.1909 27.2375 55.9174 22.9195C55.881 22.3257 55.7299 21.6564 55.5216 20.9844H57.9254C57.9358 21.8387 57.8499 22.9507 57.5165 24.2243C56.6805 27.4198 54.5944 30.4617 51.4301 33.1338V31.316L51.4327 31.3134ZM58.6963 24.4457C59.0427 23.0914 59.1365 21.909 59.126 20.9818H61.1132C60.8944 21.5496 60.66 22.1746 60.4334 22.8179C58.9411 27.0709 59.113 28.3131 59.3709 28.8757C59.5532 29.2741 59.8449 29.4356 60.0584 29.5033C60.2459 29.5606 60.4387 29.5893 60.6392 29.5893C62.1341 29.5893 63.9728 27.9642 66.2308 24.6488C67.1319 23.3284 67.9237 21.9949 68.4966 20.9792H70.5905C70.2051 21.9168 69.5384 23.1773 68.3794 24.6592C64.439 29.6934 57.5608 33.9021 51.4275 36.9336V34.6678C54.3809 32.3421 57.5452 28.9304 58.6937 24.4404L58.6963 24.4457ZM51.4327 38.2748C66.3793 31.0191 70.6687 24.3962 71.8875 20.9818H75.6405C75.6613 21.2162 75.6639 21.4715 75.6378 21.7501C75.4035 24.1722 73.0361 28.261 63.1003 33.9907C57.566 37.181 53.8808 40.0692 51.4327 42.5486V38.2748ZM51.4327 49.4866V44.2857C54.7767 40.5927 59.7433 37.3086 63.6993 35.0272C72.0672 30.2039 76.4869 25.7583 76.8359 21.8178C76.8619 21.5209 76.8619 21.2449 76.8437 20.9818H79.9403V22.8544C77.0468 27.8053 72.1141 31.8551 68.3143 34.4725L67.9653 34.7121C62.0169 38.8035 56.3628 42.7049 54.3783 49.4866H51.4353H51.4327ZM79.9377 49.4762C77.1796 47.4448 75.7941 45.3743 75.8097 43.2908C75.8306 40.6761 78.073 38.4884 79.9377 37.1185V49.4762ZM79.9377 35.647C77.7943 37.0794 74.643 39.7749 74.6143 43.2778C74.5961 45.4134 75.7498 47.4917 78.0495 49.4892H77.3958C77.0078 49.1975 76.6067 48.8772 76.2056 48.5308C72.7392 45.5228 71.9969 42.8611 71.9813 41.1579C71.9553 37.7435 74.63 34.3813 79.9377 31.1415V35.6496V35.647ZM79.9377 29.7455C73.833 33.337 70.7494 37.1732 70.7833 41.1683C70.7963 42.7439 71.3015 44.3326 72.2834 45.8874C73.0517 47.1036 74.1143 48.3016 75.4399 49.4528C75.4555 49.4658 75.4686 49.4762 75.4842 49.4892H71.2781L65.6865 41.4365L60.0949 49.4892H55.6414C57.6259 43.2934 62.9962 39.5848 68.6451 35.6991L68.9941 35.4595C74.5362 31.6441 77.9011 28.0188 79.9429 25.0707V29.7481L79.9377 29.7455Z" fill="#FEF9F3"/>
<rect width="40" height="1" transform="translate(306 44)" fill="#FEF9F3"/>
<rect width="30" height="1" transform="translate(316 55)" fill="#FEF9F3"/>
</g>
</svg>
